<?xml version="1.0" encoding="UTF-8"?><svg xmlns="http://www.w3.org/2000/svg" viewBox="0 0 202.2 260.77"><defs><style>.d{fill:#0d8fd6;}</style></defs><g id="a"/><g id="b"><g id="c"><path class="d" d="M159.83,200.53c-1.81,5.15-4.71,9.71-8.63,13.58-3.94,3.87-9.11,6.9-15.34,9.01-5.8,1.95-20.79,3.26-31.14,3.26-11.49,0-28.16-1.84-36.45-5.25-8.19-3.36-14.58-8.31-19.02-14.69-4.4-6.34-6.63-14.37-6.63-23.9s2.24-17.82,6.65-24.25c4.43-6.45,10.82-11.42,19-14.78,6.69-2.76,18.87-4.49,29.36-5.05h14.8c9.07,.44,19.03,1.57,23.56,3.08,6.29,2.09,11.49,5.16,15.41,9.07,3.9,3.9,6.72,8.61,8.39,14l1.03,3.3h37.62l-.52-5.16c-1.27-12.46-5.61-23.24-12.91-32.06-2.72-3.28-5.83-6.29-9.3-9.03,8.29-4.53,14.79-10.45,19.3-17.65,4.77-7.61,7.2-16.87,7.2-27.53s-2.43-20.13-7.2-27.75c-4.75-7.56-11.67-13.74-20.59-18.35-8.6-4.45-19.22-7.75-31.58-9.79-6.86-1.14-14.32-1.95-22.32-2.45V0h-38.58V18.13c-7.98,.5-15.44,1.32-22.32,2.46-12.36,2.05-23.01,5.34-31.68,9.79-9,4.62-15.96,10.8-20.71,18.36C2.43,56.35,0,65.69,0,76.49s2.43,19.92,7.2,27.53c4.75,7.57,11.72,13.76,20.71,18.36,.69,.36,1.43,.69,2.15,1.04-8.5,6.64-15.19,14.99-19.86,24.81-4.67,9.81-7.04,21.35-7.04,34.29s2.37,24.46,7.05,34.19c4.7,9.78,11.4,18.06,19.92,24.63,8.42,6.49,18.56,11.42,30.15,14.64,11.82,3.28,31.32,4.78,44.44,4.78,15.64,0,38.15-2.08,50.62-6.66,12.29-4.51,22.19-11.19,29.43-19.84,7.3-8.73,11.72-19.39,13.14-31.67l.61-5.23h-37.57l-1.1,3.14h-.01Zm2.46-124.02c0,6.46-1.97,11.2-6.04,14.46-4.52,3.63-11.34,6.14-20.27,7.47-4.65,.69-9.82,1.22-15.48,1.58V52.76c5.65,.35,10.82,.88,15.48,1.58,8.93,1.33,15.75,3.85,20.26,7.47,4.07,3.26,6.04,8.07,6.04,14.68h.01Zm-80.37,23.52c-5.71-.36-10.96-.89-15.71-1.59-9.09-1.33-16.07-3.86-20.75-7.51-4.18-3.26-6.21-7.98-6.21-14.42s2.03-11.38,6.22-14.64c4.67-3.65,11.65-6.17,20.75-7.51,4.76-.69,10.01-1.22,15.71-1.59v47.26h-.01Z"/></g></g></svg>