<?xml version="1.0" encoding="UTF-8"?><svg xmlns="http://www.w3.org/2000/svg" viewBox="0 0 949.27 365.38"><defs><style>.d{fill:#2495d3;}</style></defs><g id="a"/><g id="b"><g id="c"><g><g><polygon class="d" points="828.87 291.85 833.43 318.6 873.79 312.07 869.23 285.32 828.87 291.85"/><polygon class="d" points="864.87 273.54 848.94 179.98 812.94 185.8 828.87 279.37 864.87 273.54"/><polygon class="d" points="884.03 330.45 924.47 337.04 929.94 307.79 889.52 301.21 884.03 330.45"/><polygon class="d" points="949.27 191.82 913.21 185.94 894.06 288.26 930.12 294.13 949.27 191.82"/></g><path class="d" d="M225.55,348.65l-.53,15.96,41.7,.77-1.96-18.47c6.5-.75,12.59-1.72,18.22-2.91,11.31-2.39,20.98-5.87,28.76-10.34,8.21-4.72,14.49-10.84,18.67-18.2,4.21-7.42,6.12-16.26,5.67-26.28-.45-10.15-3.14-18.86-7.99-25.88-4.82-6.95-11.62-12.5-20.21-16.47-8.15-3.77-18.09-6.37-29.56-7.75-5.71-.69-11.86-1.11-18.41-1.29l-.73-16.5-39.21,1.74,.73,16.49c-6.49,.75-12.58,1.72-18.22,2.91-11.29,2.39-21,5.86-28.84,10.33-8.28,4.72-14.6,10.85-18.78,18.21-4.21,7.41-6.12,16.32-5.67,26.48,.45,10.03,3.13,18.67,7.98,25.67,4.82,6.97,11.66,12.51,20.32,16.48,8.2,3.76,18.17,6.36,29.64,7.74,5.72,.69,11.88,1.12,18.41,1.29Zm-36.55-52.95c-.31-6.96,2.28-10,4.25-11.69,3.77-3.22,9.63-5.62,17.41-7.12,3.56-.68,7.44-1.28,11.62-1.77l1.69,37.92c-4.21-.12-8.13-.37-11.73-.74-7.88-.8-13.92-2.67-17.98-5.55-3.36-2.39-5.04-5.9-5.26-11.06Zm106.68-4.73c.23,5.19-1.08,8.86-4.13,11.53-3.64,3.19-9.35,5.56-16.97,7.04-3.47,.68-7.28,1.26-11.4,1.75l-1.69-37.9c4.15,.13,8,.37,11.51,.73,7.73,.81,13.62,2.66,17.52,5.51,2.06,1.51,4.84,4.32,5.15,11.32Z"/><path class="d" d="M389.21,317.72l46.7-2.07c7.61-.34,14.86-1.49,21.52-3.42,6.98-2.02,13.14-5.11,18.32-9.18,5.37-4.22,9.52-9.65,12.33-16.14,2.78-6.41,4-14.02,3.62-22.62-.39-8.71-2.27-16.3-5.6-22.55-3.36-6.31-7.95-11.5-13.62-15.43-5.5-3.81-11.91-6.56-19.05-8.17-6.89-1.56-14.27-2.17-21.94-1.83l-85.91,3.81,4.81,136.55,42.31-1.88-3.5-37.06Zm-4.08-63.84l50.31-2.28c5.4-.24,9.5,.85,12.52,3.34,2.82,2.33,4.3,5.96,4.53,11.1,.22,4.9-.95,8.56-3.58,11.2-2.78,2.79-6.73,4.26-12.13,4.5l-49.08,2.18-2.57-30.02Z"/><path class="d" d="M644,309.08l-97.04,7.11-2.7-21.36,80.88-3.59-1.5-33.62-80.87,3.59,.5-21.33,97.37-2.09-1.55-34.81-137.92,6.12,.14,1.32c5,46.36,7.04,92.99,6.12,139.61h0l138.12-6.13-1.55-34.81Z"/><polygon class="d" points="799.86 297.69 708.43 307.96 762.09 266.98 706.27 231.71 795.2 232.22 793.42 194.69 653.51 200.9 654.94 233.18 708.17 269.51 657.97 305.62 659.78 341.82 801.66 335.53 799.86 297.69"/><path class="d" d="M149.76,127.56c-4.75-4.06-10.63-6.82-17.47-8.23-6.29-1.29-13.43-1.7-21.2-1.22-7.41,.46-15.57,1.53-24.17,3.17-8.72,1.62-16.07,2.79-22.04,3.52-3.47,.42-6.91,.54-10.39,.85-1.97,.18-3.99,.24-5.81-.3-1.82-.55-3.43-1.81-3.81-3.52-.29-1.33,.19-2.78,1.02-3.99,4.01-5.84,13.47-9.15,20.13-11.3,8.32-2.68,15.61-3.56,21.67-2.63,2.97,.47,7.17,1.86,9.83,7.98l42.58-13.74c-4.52-15.1-14.58-25.12-29.91-29.77-14.61-4.44-32.83-3.2-54.14,3.67-13.91,4.49-25.42,10.02-34.18,16.42-9.22,6.74-15.59,14.25-18.96,22.31-3.48,8.28-3.84,16.79-1.08,25.31,2.26,6.99,6.18,12.55,11.67,16.53,5.25,3.82,11.62,6.44,18.91,7.79,6.83,1.27,14.41,1.68,22.53,1.21,7.79-.44,15.99-1.46,24.4-3.03,10.17-1.92,20.75-4.29,31.03-4.45,1.75-.03,3.59,.03,5.02,.85,1.85,1.06,2.6,3.28,2.2,5.32-.41,2.04-1.81,3.89-3.53,5.34-4.86,4.1-11.4,6.72-17.51,8.65-6.34,2-13.04,3.45-19.63,3.56-5.71,.1-10.58-.71-14.47-2.4-3.41-1.48-5.67-3.46-6.89-6.05l-.29-.61-43.34,13.98,.2,.88c.91,4.11,3.06,8.28,6.4,12.4,3.23,4,7.65,7.61,13.14,10.73,5.41,3.09,11.93,5.45,19.35,7.01,7.37,1.56,15.73,2.04,24.86,1.41,9.04-.62,19.07-2.7,29.83-6.17,15.25-4.92,26.95-10.46,35.78-16.94,9.2-6.77,15.43-14.33,18.49-22.48,3.07-8.18,3.21-16.72,.4-25.39-2.28-7.04-5.85-12.67-10.62-16.71Z"/><path class="d" d="M328.32,33.35l-18.58,77.68-24.33,72.14,43.64-4.17,8.79-29.82,57.18-10.71,17.64,28.87,44.76-6.24L369.52,27.61l-41.2,5.75Zm47.57,74.95l-28.36,7.77,10.3-34.74,18.05,26.97Z"/><polygon class="d" points="519.71 6.66 488.71 71.94 446.69 12.11 396.87 27.72 474.21 117.76 477.2 158.34 526.14 147.3 513.03 108.27 567.46 0 519.71 6.66"/><polygon class="d" points="287.43 37.25 217.65 50.48 146.75 60.2 152.68 103.76 203.9 92.99 223.67 197.05 264.22 190.11 241.83 87.72 294.46 81.13 287.43 37.25"/></g></g></g></svg>